<svg width="9" height="12" viewBox="0 0 9 12" fill="none" xmlns="http://www.w3.org/2000/svg">
<path d="M6.49323 4.36366C6.49323 5.5682 5.51194 6.54545 4.30145 6.54545C3.09079 6.54545 2.10967 5.5682 2.10967 4.36366C2.10967 3.15877 3.09097 2.18187 4.30145 2.18187C5.5122 2.18179 6.49323 3.15869 6.49323 4.36366ZM8.7673 4.36366C8.7673 1.95363 6.80479 0 4.38365 0C1.96268 0 0 1.95363 0 4.36366C0 5.42328 0.379801 6.39484 1.01094 7.15056L4.38744 12L7.81332 7.07982C7.93636 6.92654 8.04905 6.76499 8.15073 6.59516L8.18536 6.54571H8.17968C8.55276 5.90346 8.7673 5.15885 8.7673 4.36366Z" fill="#777777"/>
</svg>
