<?xml version="1.0" encoding="UTF-8" standalone="no"?><!DOCTYPE svg PUBLIC "-//W3C//DTD SVG 1.1//EN" "http://www.w3.org/Graphics/SVG/1.1/DTD/svg11.dtd"><svg width="100%" height="100%" viewBox="0 0 2134 2134" version="1.1" xmlns="http://www.w3.org/2000/svg" xmlns:xlink="http://www.w3.org/1999/xlink" xml:space="preserve" xmlns:serif="http://www.serif.com/" style="fill-rule:evenodd;clip-rule:evenodd;stroke-linejoin:round;stroke-miterlimit:2;"><path d="M2133.33,240.605c0,-132.794 -107.811,-240.605 -240.605,-240.605l-1652.12,0c-132.794,0 -240.605,107.811 -240.605,240.605l0,1652.12c0,132.794 107.811,240.605 240.605,240.605l1652.12,0c132.794,0 240.605,-107.811 240.605,-240.605l0,-1652.12Z" style="fill:#0099f9;"/><path d="M1066.67,924.478c-39.002,0 -71.095,32.093 -71.095,71.094l0,284.378c0,39.001 32.093,71.094 71.095,71.094c39.001,-0 71.094,-32.093 71.094,-71.094l-0,-284.378c-0,-39.001 -32.093,-71.094 -71.094,-71.094Zm-284.378,213.283c-39.001,-0 -71.094,32.093 -71.094,71.094l0,71.095c0,39.001 32.093,71.094 71.094,71.094c39.002,-0 71.095,-32.093 71.095,-71.094l-0,-71.095c-0,-39.001 -32.093,-71.094 -71.095,-71.094Zm284.378,-782.037c-390.012,-0 -710.943,320.931 -710.943,710.943c-0.622,164.128 56.245,323.404 160.673,450.027l-142.189,142.188c-20.132,20.403 -26.04,51.071 -14.93,77.493c12.052,26.109 38.809,42.444 67.54,41.235l639.849,-0c390.011,-0 710.943,-320.932 710.943,-710.943c-0,-390.012 -320.932,-710.943 -710.943,-710.943Zm-0,1279.7l-468.512,0l66.118,-66.118c13.563,-13.294 21.249,-31.484 21.328,-50.477c-0.267,-18.745 -7.938,-36.644 -21.328,-49.766c-106.758,-106.639 -166.808,-251.499 -166.808,-402.393c0,-312.01 256.745,-568.755 568.754,-568.755c312.01,0 568.755,256.745 568.755,568.755c-0,311.84 -256.467,568.509 -568.307,568.754Zm284.377,-853.132c-39.001,0 -71.094,32.094 -71.094,71.095l-0,426.566c-0,39.001 32.093,71.094 71.094,71.094c39.001,-0 71.094,-32.093 71.094,-71.094l0,-426.566c0,-39.001 -32.093,-71.095 -71.094,-71.095Z" style="fill:#fff;fill-rule:nonzero;"/></svg>