<?xml version="1.0" encoding="UTF-8" standalone="no"?><!DOCTYPE svg PUBLIC "-//W3C//DTD SVG 1.1//EN" "http://www.w3.org/Graphics/SVG/1.1/DTD/svg11.dtd"><svg width="100%" height="100%" viewBox="0 0 2134 2134" version="1.1" xmlns="http://www.w3.org/2000/svg" xmlns:xlink="http://www.w3.org/1999/xlink" xml:space="preserve" xmlns:serif="http://www.serif.com/" style="fill-rule:evenodd;clip-rule:evenodd;stroke-linejoin:round;stroke-miterlimit:2;"><path d="M2133.33,240.605c0,-132.794 -107.811,-240.605 -240.605,-240.605l-1652.12,0c-132.794,0 -240.605,107.811 -240.605,240.605l0,1652.12c0,132.794 107.811,240.605 240.605,240.605l1652.12,0c132.794,0 240.605,-107.811 240.605,-240.605l0,-1652.12Z" style="fill:#ff3796;"/><g><path d="M1066.67,827.575c76.604,0 138.925,-62.317 138.925,-138.921c-0,-76.608 -62.321,-138.929 -138.925,-138.929c-76.604,-0 -138.921,62.321 -138.921,138.929c-0,76.604 62.317,138.921 138.921,138.921Z" style="fill:#fff;fill-rule:nonzero;"/><path d="M1047.71,1162.38c6.104,4.254 12.542,6.304 19.504,6.304c24.08,0 54.43,-24.546 98.676,-67.621c35.891,-34.937 70.879,-73.662 77.079,-81.187c92.258,-111.817 139.246,-254.225 125.7,-380.942l-0,-0.004c-1.129,-10.542 -2.688,-21.142 -4.634,-31.525c-12.166,-64.575 -51.504,-123.942 -110.758,-167.154c-55.175,-40.233 -124.233,-63.304 -189.471,-63.304l-0.012,-0c-90.629,-0 -172.017,36.991 -229.163,104.162c-58.162,68.363 -82.95,160.384 -68,252.463c27.088,166.891 129.542,323.183 281.079,428.808Zm18.959,-668.896c107.616,0 195.175,87.554 195.175,195.179c-0,107.617 -87.559,195.171 -195.175,195.171c-107.617,0 -195.171,-87.554 -195.171,-195.171c-0,-107.629 87.554,-195.179 195.171,-195.179Z" style="fill:#fff;fill-rule:nonzero;"/><path d="M566.363,1238.32c-13.455,11.833 -20.5,20.537 -21.263,21.487c-9.638,12.1 -7.638,29.65 4.408,39.359c5.179,4.175 11.396,6.2 17.592,6.2c8.196,-0 16.337,-3.559 21.904,-10.392c0.046,-0.058 4.904,-5.971 14.513,-14.425c11.662,-10.263 12.8,-28.038 2.537,-39.696c-10.254,-11.65 -28.025,-12.808 -39.692,-2.533Z" style="fill:#fff;fill-rule:nonzero;"/><path d="M1146.39,1302.35c-13.896,-6.954 -30.788,-1.321 -37.738,12.575c-6.946,13.896 -1.312,30.791 12.579,37.737c16.5,8.254 31.921,15.338 47.142,21.659c3.525,1.466 7.179,2.158 10.775,2.158c11.025,-0 21.488,-6.521 25.983,-17.342c5.959,-14.341 -0.837,-30.8 -15.187,-36.758c-13.988,-5.821 -28.242,-12.375 -43.554,-20.029Z" style="fill:#fff;fill-rule:nonzero;"/><path d="M957,1197.24c-13.962,-6.829 -30.804,-1.05 -37.625,12.904c-6.829,13.954 -1.05,30.8 12.904,37.621c12.646,6.183 26.617,13.591 42.717,22.629c4.358,2.45 9.079,3.604 13.746,3.604c9.837,0 19.387,-5.167 24.55,-14.354c7.608,-13.55 2.791,-30.692 -10.75,-38.292c-17.042,-9.575 -31.942,-17.454 -45.542,-24.112Z" style="fill:#fff;fill-rule:nonzero;"/><path d="M783.429,1158.59c-18.171,0.466 -36.175,2.15 -53.508,4.995c-15.329,2.517 -25.713,16.988 -23.188,32.313c2.263,13.788 14.188,23.571 27.717,23.571c1.513,-0 3.046,-0.125 4.592,-0.379c14.808,-2.434 30.225,-3.871 45.837,-4.271c15.529,-0.404 27.792,-13.313 27.388,-28.842c-0.392,-15.529 -13.388,-27.546 -28.838,-27.387Z" style="fill:#fff;fill-rule:nonzero;"/><path d="M1340.78,1411.36c17.905,-0.091 36.009,-1.508 53.804,-4.212c15.359,-2.338 25.917,-16.679 23.58,-32.034c-2.334,-15.362 -16.746,-25.895 -32.034,-23.583c-15.104,2.3 -30.458,3.5 -45.641,3.575c-15.538,0.079 -28.059,12.734 -27.979,28.267c0.075,15.487 12.654,27.983 28.116,27.983c0.054,0.004 0.1,0.004 0.154,0.004Z" style="fill:#fff;fill-rule:nonzero;"/><path d="M1544.98,1348.18c5.008,0 10.083,-1.337 14.671,-4.15c7.404,-4.545 14.921,-9.379 22.325,-14.383c12.871,-8.687 16.262,-26.167 7.566,-39.042c-8.683,-12.866 -26.166,-16.27 -39.041,-7.57c-6.729,4.537 -13.542,8.929 -20.246,13.041c-13.25,8.117 -17.4,25.434 -9.283,38.675c5.308,8.659 14.545,13.429 24.008,13.429Z" style="fill:#fff;fill-rule:nonzero;"/><path d="M1778.33,1497.77l-142.225,-449.413c-14.583,-46.079 -56.85,-77.033 -105.179,-77.033l-188.029,-0c-15.538,-0 -28.125,12.587 -28.125,28.125c-0,15.533 12.587,28.125 28.125,28.125l169.162,-0l-180.854,166.404c-11.429,10.521 -12.171,28.313 -1.654,39.746c5.55,6.021 13.112,9.079 20.708,9.079c6.804,0 13.629,-2.454 19.038,-7.425l203.391,-187.142c0.15,-0.137 0.254,-0.304 0.396,-0.441c4.088,5.108 7.329,11.004 9.4,17.541l142.221,449.409c5.262,16.621 2.362,34.216 -7.933,48.275c-10.296,14.054 -26.196,22.121 -43.621,22.121l-94.4,-0l-105.913,-117.45c-10.4,-11.534 -28.175,-12.455 -39.72,-2.05c-11.538,10.4 -12.455,28.187 -2.051,39.72l71.946,79.775l-817.85,0l148.463,-209.062c9,-12.663 6.021,-30.221 -6.646,-39.213c-12.65,-8.983 -30.217,-6.016 -39.208,6.646l-171.592,241.629l-155.983,0c-17.425,0 -33.325,-8.066 -43.621,-22.12c-10.3,-14.059 -13.196,-31.655 -7.938,-48.271l142.234,-449.417c7.141,-22.583 27.854,-37.754 51.545,-37.754l188.038,-0c15.538,-0 28.125,-12.592 28.125,-28.125c0,-15.538 -12.587,-28.125 -28.125,-28.125l-188.038,-0c-48.337,-0 -90.604,30.958 -105.179,77.033l-142.229,449.417c-10.721,33.9 -4.821,69.792 16.192,98.479c21.004,28.679 53.446,45.129 88.996,45.129l1212.95,0c35.55,0 67.991,-16.45 89,-45.129c21.012,-28.687 26.912,-64.579 16.187,-98.483Z" style="fill:#fff;fill-rule:nonzero;"/><path d="M1059.5,1700.15l-382.237,0c-15.534,0 -28.125,12.588 -28.125,28.125c-0,15.533 12.591,28.125 28.125,28.125l382.237,0c15.538,0 28.125,-12.592 28.125,-28.125c0,-15.533 -12.587,-28.125 -28.125,-28.125Z" style="fill:#fff;fill-rule:nonzero;"/><path d="M1239.5,1700.15l-61.879,0c-15.538,0 -28.125,12.588 -28.125,28.125c-0,15.533 12.587,28.125 28.125,28.125l61.879,0c15.534,0 28.125,-12.592 28.125,-28.125c0,-15.533 -12.591,-28.125 -28.125,-28.125Z" style="fill:#fff;fill-rule:nonzero;"/><path d="M1582.63,1700.15l-230.625,0c-15.537,0 -28.125,12.588 -28.125,28.125c0,15.533 12.588,28.125 28.125,28.125l230.625,0c15.538,0 28.125,-12.592 28.125,-28.125c0,-15.533 -12.587,-28.125 -28.125,-28.125Z" style="fill:#fff;fill-rule:nonzero;"/></g></svg>