<svg width="128" height="128" viewBox="0 0 128 128" fill="none" xmlns="http://www.w3.org/2000/svg">
<circle cx="64" cy="64" r="64" fill="url(#paint0_linear)"/>
<path d="M84.507 78C83.307 81.6667 81.0404 84.8333 77.707 87.5C74.4404 90.1 70.4737 91.4 65.807 91.4C61.0737 91.4 56.9737 90.3333 53.507 88.2C50.0404 86 47.3737 82.9667 45.507 79.1C43.707 75.1667 42.807 70.6333 42.807 65.5C42.807 59.7 43.7404 54.6667 45.607 50.4C47.4737 46.1333 50.107 42.8667 53.507 40.6C56.907 38.2667 60.8737 37.1 65.407 37.1C71.407 37.1 76.007 38.9333 79.207 42.6C82.4737 46.2 84.107 51.7 84.107 59.1H52.807C52.607 60.9667 52.507 63.1 52.507 65.5C52.507 69.9 53.207 73.7333 54.607 77C56.0737 80.2667 57.9737 82.8 60.307 84.6C62.707 86.3333 65.207 87.2 67.807 87.2C71.007 87.2 73.8404 86.4333 76.307 84.9C78.7737 83.3667 80.8404 80.8 82.507 77.2L84.507 78ZM65.007 39C61.8737 39 59.1737 40.5333 56.907 43.6C54.6404 46.6667 53.2404 51.2 52.707 57.2H74.507C74.6404 52 73.8737 47.6667 72.207 44.2C70.607 40.7333 68.207 39 65.007 39Z" fill="white"/>
<defs>
<linearGradient id="paint0_linear" x1="15.2" y1="-4.77032e-06" x2="141.486" y2="101.096" gradientUnits="userSpaceOnUse">
<stop stop-color="#3A3D46"/>
<stop offset="1" stop-color="#4A3FC9"/>
</linearGradient>
</defs>
</svg>
