<?xml version="1.0" encoding="UTF-8" standalone="no"?><!DOCTYPE svg PUBLIC "-//W3C//DTD SVG 1.1//EN" "http://www.w3.org/Graphics/SVG/1.1/DTD/svg11.dtd"><svg width="100%" height="100%" viewBox="0 0 667 667" version="1.1" xmlns="http://www.w3.org/2000/svg" xmlns:xlink="http://www.w3.org/1999/xlink" xml:space="preserve" xmlns:serif="http://www.serif.com/" style="fill-rule:evenodd;clip-rule:evenodd;"><path d="M666.667,132.201c-0,-72.964 -59.238,-132.201 -132.202,-132.201l-402.264,0c-72.964,0 -132.201,59.237 -132.201,132.201l-0,402.264c-0,72.964 59.237,132.202 132.201,132.202l402.264,-0c72.964,-0 132.202,-59.238 132.202,-132.202l-0,-402.264Z" style="fill:#fff;"/><path d="M175,237.5l316.667,0l-0,241.667c-0,41.421 -33.579,75 -75,75l-166.667,-0c-41.421,-0 -75,-33.579 -75,-75l0,-241.667Z" style="fill:none;fill-rule:nonzero;stroke:#536dff;stroke-width:16.67px;"/><path d="M208.333,270.833l250,0l0,200c0,27.615 -22.385,50 -50,50l-150,0c-27.614,0 -50,-22.386 -50,-50l0,-200Z" style="fill:none;fill-rule:nonzero;stroke:#536dff;stroke-width:8.33px;stroke-linecap:round;stroke-linejoin:round;stroke-dasharray:20.83,20.83;"/><path d="M208.333,320.833l130,33.334l120,-33.334" style="fill:none;fill-rule:nonzero;stroke:#536dff;stroke-width:8.33px;stroke-linecap:round;stroke-linejoin:round;stroke-dasharray:20.83,20.83;"/><rect x="191.667" y="170.833" width="50" height="50" style="fill:#536dff;"/><rect x="250" y="104.167" width="50" height="116.667" style="fill:#536dff;"/><rect x="308.333" y="137.5" width="50" height="83.333" style="fill:#536dff;"/><rect x="366.667" y="162.5" width="50" height="58.333" style="fill:#536dff;"/><rect x="425" y="170.833" width="50" height="50" style="fill:#536dff;"/></svg>