<?xml version="1.0" encoding="UTF-8" standalone="no"?><!DOCTYPE svg PUBLIC "-//W3C//DTD SVG 1.1//EN" "http://www.w3.org/Graphics/SVG/1.1/DTD/svg11.dtd"><svg width="100%" height="100%" viewBox="0 0 417 417" version="1.1" xmlns="http://www.w3.org/2000/svg" xmlns:xlink="http://www.w3.org/1999/xlink" xml:space="preserve" xmlns:serif="http://www.serif.com/" style="fill-rule:evenodd;clip-rule:evenodd;stroke-linejoin:round;stroke-miterlimit:2;"><g id="Artwork_3_1_"><g><path d="M208.333,0c-115.059,0 -208.333,93.274 -208.333,208.333c0,115.06 93.274,208.334 208.333,208.334c115.06,-0 208.334,-93.274 208.334,-208.334c-0,-115.059 -93.274,-208.333 -208.334,-208.333" style="fill:#ff6d70;fill-rule:nonzero;"/><path d="M319.221,236.674c-3.48,-2.49 -6.011,-5.767 -7.595,-9.837c-1.585,-4.075 -2.372,-8.615 -2.372,-13.63c-0,-4.834 0.996,-9.322 3,-13.465c1.998,-4.143 5.003,-7.472 9,-9.996c4.001,-2.525 8.875,-3.787 14.62,-3.787c2.954,0 5.462,0.238 7.511,0.708c2.054,0.47 4.194,1.381 6.424,2.739l-0.47,-19.889c0,-2.293 -0.894,-3.895 -2.688,-4.8c-1.795,-0.906 -4.393,-1.478 -7.806,-1.721c-0.419,-0.175 -0.73,-0.419 -0.939,-0.736c-0.204,-0.311 -0.312,-0.758 -0.312,-1.353c0,-0.486 0.119,-0.984 0.363,-1.488c0.243,-0.504 0.543,-0.776 0.888,-0.81c5.428,-0.35 12.424,-0.52 20.988,-0.52l4.33,-0c0.379,-0 0.742,0.164 1.07,0.492c0.328,0.334 0.498,0.866 0.498,1.596l-0,69.581c-0,1.392 0.283,2.445 0.86,3.158c0.572,0.713 1.251,1.172 2.038,1.381c0.781,0.209 1.76,0.385 2.943,0.521c0.77,0.068 1.274,0.22 1.517,0.447c0.244,0.226 0.368,0.719 0.368,1.483c0,0.458 -0.17,0.923 -0.498,1.415c-0.334,0.481 -0.758,0.724 -1.279,0.724l-17.954,0c-1.325,0 -2.276,-0.198 -2.847,-0.6c-0.572,-0.396 -0.912,-0.945 -1.019,-1.641c-0.102,-0.696 -0.136,-1.828 -0.102,-3.396c-1.675,2.298 -4.126,4.07 -7.364,5.298c-3.232,1.239 -6.486,1.856 -9.758,1.856c-5.462,0 -9.934,-1.245 -13.415,-3.73m26.15,-5.117c1.772,-0.854 3.097,-2.043 3.968,-3.577l0,-30.899c-0.277,-0.837 -0.888,-1.698 -1.828,-2.586c-0.94,-0.889 -2.009,-1.619 -3.209,-2.191c-1.2,-0.577 -2.321,-0.86 -3.368,-0.86c-5.083,-0 -8.7,1.885 -10.856,5.66c-2.157,3.781 -3.232,9.147 -3.232,16.103c-0,13.086 4.415,19.63 13.256,19.63c1.737,-0 3.498,-0.43 5.269,-1.28" style="fill:#f8f3ef;fill-rule:nonzero;"/><path d="M187.51,233.249c-4.902,-4.76 -7.358,-11.62 -7.358,-20.563c-0,-5.604 1.313,-10.42 3.939,-14.456c2.627,-4.036 6.153,-7.092 10.574,-9.164c4.414,-2.066 9.271,-3.107 14.563,-3.107c7.721,-0 13.477,1.511 17.275,4.517c3.792,3.011 6.175,7.42 7.154,13.233c0.312,1.879 0.465,4.749 0.465,8.615l-36.225,0.051c-0,5.043 0.792,9.135 2.377,12.265c1.579,3.13 3.594,5.377 6.028,6.736c2.434,1.358 5.009,2.032 7.726,2.032c3.204,-0 5.892,-0.413 8.066,-1.251c2.173,-0.832 4.075,-2.213 5.711,-4.121c0.039,-0.034 0.136,-0.152 0.288,-0.339c0.159,-0.193 0.323,-0.323 0.499,-0.391c0.169,-0.073 0.362,-0.09 0.577,-0.056l2.292,1.098c0.351,0.141 0.521,0.345 0.521,0.628c0,0.204 -0.102,0.504 -0.311,0.883c-1.879,3.272 -4.63,5.847 -8.247,7.726c-3.623,1.879 -8.072,2.819 -13.364,2.819c-10.126,-0 -17.642,-2.383 -22.55,-7.155m27.407,-38.806c-1.217,-2.7 -3.17,-4.047 -5.847,-4.047c-2.819,0 -5.247,1.404 -7.285,4.206c-2.032,2.796 -3.277,7.109 -3.73,12.916l18.69,0c-0,-6.017 -0.611,-10.375 -1.828,-13.075" style="fill:#f8f3ef;fill-rule:nonzero;"/><path d="M238.586,238.185c-0.317,-0.47 -0.47,-0.945 -0.47,-1.432c-0,-0.594 0.119,-1.047 0.362,-1.359c0.244,-0.316 0.696,-0.509 1.359,-0.577c3.69,-0.447 5.53,-1.568 5.53,-3.339l-0,-33.197c-0,-1.602 -0.295,-2.819 -0.883,-3.657c-0.595,-0.832 -1.285,-1.386 -2.061,-1.669c-0.781,-0.278 -1.805,-0.504 -3.056,-0.68c-1.013,-0.135 -1.602,-0.243 -1.772,-0.311c-0.424,-0.175 -0.736,-0.419 -0.939,-0.73c-0.21,-0.317 -0.317,-0.764 -0.317,-1.358c-0,-0.487 0.113,-0.98 0.339,-1.489c0.227,-0.504 0.532,-0.776 0.917,-0.81c8.14,-0.481 15.498,-0.73 22.081,-0.73c0.345,0 0.673,0.159 0.99,0.47c0.311,0.317 0.504,0.855 0.572,1.619l-0,5.847c0.803,-0.94 2.298,-2.117 4.488,-3.526c2.196,-1.41 4.743,-2.644 7.647,-3.702c2.909,-1.064 5.774,-1.596 8.587,-1.596c5.15,-0 9.243,1.109 12.271,3.317c3.022,2.213 4.539,6.288 4.539,12.237l0,28.244c0,1.947 0.487,3.221 1.461,3.809c0.973,0.595 1.992,0.94 3.056,1.042c1.059,0.107 1.76,0.175 2.111,0.209c0.629,0.068 1.07,0.238 1.336,0.498c0.255,0.261 0.385,0.742 0.385,1.438c-0,0.487 -0.153,0.962 -0.47,1.432c-0.311,0.47 -0.747,0.707 -1.302,0.707l-28.029,0c-0.56,0 -0.996,-0.237 -1.307,-0.707c-0.312,-0.47 -0.47,-0.945 -0.47,-1.432c-0,-0.628 0.102,-1.087 0.311,-1.387c0.21,-0.294 0.646,-0.481 1.308,-0.549c1.285,-0.136 2.445,-0.504 3.469,-1.098c1.025,-0.589 1.54,-1.336 1.54,-2.241l-0,-29.699c-0,-1.359 -0.102,-2.575 -0.311,-3.657c-0.21,-1.081 -0.776,-2.049 -1.698,-2.92c-0.923,-0.872 -2.321,-1.308 -4.2,-1.308c-1.777,0 -3.594,0.34 -5.457,1.019c-1.862,0.679 -3.566,1.523 -5.116,2.53c-1.546,1.013 -2.757,2.004 -3.629,2.977l0,29.337c0,1.392 0.255,2.445 0.759,3.158c0.504,0.714 1.121,1.183 1.856,1.41c0.731,0.226 1.67,0.39 2.813,0.492c0.765,0.068 1.274,0.221 1.517,0.447c0.244,0.227 0.363,0.719 0.363,1.489c-0,0.453 -0.165,0.917 -0.493,1.409c-0.334,0.487 -0.758,0.73 -1.279,0.73l-27.406,0c-0.555,0 -0.991,-0.237 -1.302,-0.707" style="fill:#f8f3ef;fill-rule:nonzero;"/><path d="M177.953,235.267c-0.243,-0.232 -0.747,-0.38 -1.517,-0.448c-1.285,-0.141 -2.349,-0.305 -3.181,-0.498c-0.838,-0.186 -1.573,-0.605 -2.219,-1.251c-0.645,-0.639 -0.968,-1.573 -0.968,-2.79l0,-70.107c0,-0.73 -0.164,-1.256 -0.492,-1.59c-0.334,-0.329 -0.691,-0.498 -1.07,-0.498c-7.969,-0 -15.712,0.249 -23.229,0.736c-0.351,0.034 -0.645,0.3 -0.889,0.809c-0.243,0.504 -0.362,0.996 -0.362,1.483c0,0.594 0.102,1.047 0.311,1.358c0.21,0.312 0.521,0.561 0.94,0.73c0.141,0.034 0.798,0.142 1.981,0.317c1.426,0.17 2.592,0.402 3.498,0.674c0.906,0.283 1.687,0.838 2.349,1.675c0.662,0.832 0.99,2.066 0.99,3.708l-0.05,62.426c-0,0.871 -5.23,3.005 -9.011,3.005c-3.781,0 -8.723,-2.105 -9.108,-3.034c-0.379,-0.922 -0.571,-2.06 -0.571,-3.418l-0,-28.08c-0,-2.853 -0.804,-5.366 -2.4,-7.54c-1.602,-2.179 -4.093,-3.883 -7.466,-5.122c-3.379,-1.234 -7.636,-1.851 -12.792,-1.851c-3.617,-0 -7.347,0.447 -11.196,1.33c-3.843,0.889 -7.098,2.264 -9.758,4.126c-2.66,1.862 -3.996,4.183 -3.996,6.968c0,2.156 0.793,3.922 2.377,5.298c1.064,0.928 2.355,1.511 3.827,1.817c1.545,0.22 3.169,-0.142 2.966,-2.179c-0.012,-0.142 -0,-0.215 -0,-0.317c-0.357,-4.245 1.754,-8.7 7.08,-11.009c0.238,-0.102 0.453,-0.17 0.674,-0.255c0.917,-0.453 2.938,-0.821 5.785,-0.821c2.575,0 4.511,0.583 5.818,1.749c1.308,1.166 1.959,3.3 1.959,6.396l-0,8.609c-5.955,0.629 -11.287,1.529 -16.002,2.689c-4.714,1.166 -8.716,3.039 -12.005,5.615c-3.288,2.575 -4.93,6 -4.93,10.279c0,3.135 0.81,5.745 2.428,7.833c1.619,2.089 3.623,3.617 6.029,4.596c2.399,0.968 4.765,1.461 7.097,1.461c3.725,-0 7.16,-0.606 10.308,-1.806c3.152,-1.194 5.841,-2.96 8.065,-5.298l0,0.159c0,1.183 0.238,3.028 0.238,3.028c-0,-0 0.198,1.511 1.981,2.439c1.783,0.934 12.843,0.221 14.858,0.221l40.244,-0c0.554,-0 0.99,-0.232 1.307,-0.702c0.311,-0.47 0.464,-0.945 0.464,-1.438c0,-0.764 -0.119,-1.256 -0.362,-1.482m-59.72,-6.606c-2.157,2.644 -4.959,3.968 -8.406,3.968c-2.156,-0 -3.837,-0.679 -5.037,-2.038c-1.2,-1.358 -1.8,-2.977 -1.8,-4.856c-0,-3.374 0.736,-6.017 2.19,-7.93c1.466,-1.913 3.266,-3.272 5.406,-4.075c2.139,-0.798 4.692,-1.427 7.647,-1.879l-0,16.81Z" style="fill:#f8f3ef;fill-rule:nonzero;"/><path d="M81.724,233.382c-0.21,-0.606 -0.504,-1.172 -0.889,-1.693c-0.385,-0.526 -0.679,-0.735 -0.883,-0.628c-1.325,0.662 -2.774,1.217 -4.336,1.67c-1.568,0.453 -2.926,0.679 -4.069,0.679c-1.291,0 -2.276,-0.289 -2.949,-0.86c-0.68,-0.578 -1.166,-1.636 -1.466,-3.187c-0.295,-1.545 -0.442,-3.798 -0.442,-6.758l0,-30.016l11.224,-0c0.385,-0 0.736,-0.362 1.07,-1.092c0.328,-0.731 0.498,-1.636 0.498,-2.717c0,-0.448 -0.119,-0.855 -0.345,-1.2c-0.227,-0.346 -0.526,-0.544 -0.911,-0.572l-11.536,0l0,-14.569c0,-0.606 -0.402,-1.03 -1.115,-1.319c-1.302,-0.413 -2.066,1.007 -2.066,1.007c-3.509,8.117 -10.403,14.377 -18.927,17.049c-0,-0 -1.744,0.419 -1.297,2.236c0.057,0.158 0.102,0.317 0.176,0.475c0.243,0.504 0.538,0.776 0.889,0.809l5.58,0l0,34.556c0,4.907 1.489,8.331 4.466,10.279c2.978,1.952 6.968,2.926 11.983,2.926c1.562,-0 3.379,-0.294 5.451,-0.889c2.071,-0.588 4.018,-1.347 5.847,-2.269c1.828,-0.923 3.175,-1.851 4.047,-2.791c0.209,-0.141 0.209,-0.515 -0,-1.126" style="fill:#f8f3ef;fill-rule:nonzero;"/></g></g></svg>