<svg viewBox="0 0 23.94 9.43" xmlns="http://www.w3.org/2000/svg"><path d="m23.43 5.87a.93.93 0 0 0 -.54.39 3 3 0 0 1 -2.39 1.27 1.62 1.62 0 0 1 -1.62-1 14.08 14.08 0 0 0 1.76-1.86 3.74 3.74 0 0 0 1.1-2.54 2 2 0 0 0 -1.87-2.13h-.13c-2.84.07-4 2.74-3.94 5.3a4.65 4.65 0 0 0 .2 1.17c-.59.68-1 1-1.25 1-.95 0-.66-1.91-.59-2.91s.34-3.15.12-3.44a3.37 3.37 0 0 0 -1.7-.92 4.3 4.3 0 0 0 -2.18 1.73 2.25 2.25 0 0 0 -.09-.73 3.35 3.35 0 0 0 -1.79-1 6.34 6.34 0 0 0 -2.73 2.4c0-.49.24-2 0-2a4.83 4.83 0 0 0 -2.23.29 13.42 13.42 0 0 0 -.12 2.83c-.1 1.95-.41 4.16.24 5.35a2.28 2.28 0 0 0 1.73-.27 18.25 18.25 0 0 1 .69-3.88 4.62 4.62 0 0 1 1.57-2.08c.2 0 .22.63.19.9-.08 1.3-.34 4.77 0 5.16s1.71 0 2-.08a25.6 25.6 0 0 0 .27-3.27 4.86 4.86 0 0 1 1.59-2.74c.2 0 .25.63.22.9 0 1.3-.12 4 .17 4.64a1.76 1.76 0 0 0 1.44.93 6.68 6.68 0 0 0 1.78-.22 3.1 3.1 0 0 0 1.36-1.25 4.14 4.14 0 0 0 3.36 1.62 3.8 3.8 0 0 0 3.87-2.85c.08-.48-.13-.71-.49-.71zm-3.82-4.17c.08 0 .19.09.24.27a3.63 3.63 0 0 1 -.53 1.53 7.67 7.67 0 0 1 -1.27 1.57c-.13-.87.29-3.52 1.56-3.37zm-17.23 6.24a1.19 1.19 0 1 1 -1.19-1.19 1.19 1.19 0 0 1 1.19 1.19z" fill="#00a1df"/></svg>