<svg version="1.1" id="prayernetwork-icon" xmlns="http://www.w3.org/2000/svg" xmlns:xlink="http://www.w3.org/1999/xlink" x="0px" y="0px"
     viewBox="0 0 128 128" enable-background="new 0 0 128 128" xml:space="preserve">
<linearGradient id="gradient-1" gradientUnits="userSpaceOnUse" x1="64" y1="99.75" x2="64" y2="25.7496">
    <stop  offset="0" style="stop-color:#4697DD"/>
    <stop  offset="1" style="stop-color:#3E7FC4"/>
</linearGradient>
<rect fill="url(#gradient-1)" width="128" height="128"/>
<g>
    <linearGradient id="gradient-2" gradientUnits="userSpaceOnUse" x1="64" y1="49" x2="64" y2="79">
        <stop  offset="0" style="stop-color:#4697DD"/>
        <stop  offset="1" style="stop-color:#3E7FC4"/>
    </linearGradient>
    <path fill="url(#gradient-2)" d="M16,79c-1.7,0-3-1.3-3-3V52c0-1.7,1.3-3,3-3h96c1.7,0,3,1.3,3,3v24c0,1.7-1.3,3-3,3H16z"/>
    <path fill="#FFFFFF" d="M112,50c1.1,0,2,0.9,2,2v24c0,1.1-0.9,2-2,2H16c-1.1,0-2-0.9-2-2V52c0-1.1,0.9-2,2-2H112 M112,48H16
        c-2.2,0-4,1.8-4,4v24c0,2.2,1.8,4,4,4h96c2.2,0,4-1.8,4-4V52C116,49.8,114.2,48,112,48L112,48z"/>
</g>
<rect x="22.4" y="58" fill="none" width="83.2" height="11"/>
<text transform="matrix(1 0 0 1 27.7197 67.9961)" fill="#FFFFFF" font-family="'HelveticaNeue'" font-size="14px">New Prayer</text>
</svg>
