<svg xmlns="http://www.w3.org/2000/svg" viewBox="0 0 128 128"><title>dolcestrings-icon</title><path fill="#eee" d="M0 0h128v128H0z"/><text transform="translate(11.75 20.28)" font-size="13" font-family="Helvetica Neue" font-weight="700">Practice Per Day</text><path fill="#fff" d="M11 30h106v14H11z"/><path fill="#e9f8fe" d="M11 30h79.5v14H11z"/><text transform="translate(14.75 40.85)" font-size="11" fill="#444" font-family="Helvetica Neue" font-weight="700">45</text><text transform="translate(28.5 40.95)" font-size="6" fill="#444" font-family="Helvetica Neue">minutes</text><path fill="#b8e7f8" d="M90.5 30h1v14h-1z"/><text transform="translate(83.16 40.18)" font-size="9" fill="#777" font-family="Helvetica Neue">Sunday</text><path fill="#fff" d="M11 48h106v14H11z"/><path fill="#e9f8fe" d="M11 48h53v14H11z"/><text transform="translate(14.75 58.85)" font-size="11" fill="#444" font-family="Helvetica Neue" font-weight="700">30</text><text transform="translate(28.5 58.95)" font-size="6" fill="#444" font-family="Helvetica Neue">minutes</text><path fill="#b8e7f8" d="M64 48h1v14h-1z"/><text transform="translate(80.99 58.18)" font-size="9" fill="#777" font-family="Helvetica Neue">Monday</text><path fill="#e9f8fe" d="M11 66h106v14H11z"/><text transform="translate(14.75 76.85)" font-size="11" fill="#444" font-family="Helvetica Neue" font-weight="700">60</text><text transform="translate(28.5 76.95)" font-size="6" fill="#444" font-family="Helvetica Neue">minutes</text><text transform="translate(80.32 76.18)" font-size="9" fill="#777" font-family="Helvetica Neue">T<tspan x="4.34" y="0">uesday</tspan></text><path fill="#fff" d="M11 84h106v14H11z"/><path fill="#e9f8fe" d="M11 84h26.5v14H11z"/><text transform="translate(14.75 94.85)" font-size="11" fill="#444" font-family="Helvetica Neue" font-weight="700">15</text><path fill="#b8e7f8" d="M37.5 84h1v14h-1z"/><text transform="translate(28.5 94.95)" font-size="6" fill="#444" font-family="Helvetica Neue">minutes</text><text transform="translate(66.67 94.18)" font-size="9" fill="#777" font-family="Helvetica Neue">W<tspan x="7.82" y="0">ednesday</tspan></text><path fill="#e9f8fe" d="M11 102h106v14H11z"/><text transform="translate(14.75 112.85)" font-size="11" fill="#444" font-family="Helvetica Neue" font-weight="700">60</text><text transform="translate(28.5 112.95)" font-size="6" fill="#444" font-family="Helvetica Neue">minutes</text><text transform="translate(76.33 112.18)" font-size="9" fill="#777" font-family="Helvetica Neue">Thursday</text></svg>