<svg version="1.1" xmlns="http://www.w3.org/2000/svg" x="0" y="0" viewBox="0 0 128 128" xml:space="preserve"><linearGradient id="a" gradientUnits="userSpaceOnUse" x1="64" y1="99.75" x2="64" y2="25.75"><stop offset="0" stop-color="#4697dd"/><stop offset="1" stop-color="#3e7fc4"/></linearGradient><path fill="url(#a)" d="M0 0h128v128H0z"/><linearGradient id="b" gradientUnits="userSpaceOnUse" x1="64" y1="49" x2="64" y2="79"><stop offset="0" stop-color="#4697dd"/><stop offset="1" stop-color="#3e7fc4"/></linearGradient><path fill="url(#b)" d="M16 79c-1.7 0-3-1.3-3-3V52c0-1.7 1.3-3 3-3h96c1.7 0 3 1.3 3 3v24c0 1.7-1.3 3-3 3H16z"/><path fill="#FFF" d="M112 50c1.1 0 2 .9 2 2v24c0 1.1-.9 2-2 2H16c-1.1 0-2-.9-2-2V52c0-1.1.9-2 2-2h96m0-2H16c-2.2 0-4 1.8-4 4v24c0 2.2 1.8 4 4 4h96c2.2 0 4-1.8 4-4V52c0-2.2-1.8-4-4-4z"/><path fill="none" d="M22.4 58h83.2v11H22.4z"/><text transform="translate(27.72 67.996)" fill="#FFF" font-family="'HelveticaNeue'" font-size="14">New Prayer</text></svg>