<?xml version="1.0" encoding="UTF-8" standalone="no"?><!DOCTYPE svg PUBLIC "-//W3C//DTD SVG 1.1//EN" "http://www.w3.org/Graphics/SVG/1.1/DTD/svg11.dtd"><svg width="100%" height="100%" viewBox="0 0 256 256" version="1.1" xmlns="http://www.w3.org/2000/svg" xmlns:xlink="http://www.w3.org/1999/xlink" xml:space="preserve" xmlns:serif="http://www.serif.com/" style="fill-rule:evenodd;clip-rule:evenodd;stroke-linejoin:round;stroke-miterlimit:2;"><path d="M192.407,53.469l-31.573,160.246c-0.153,0.796 -0.461,1.552 -0.907,2.227c-0.447,0.675 -1.021,1.256 -1.692,1.708c-0.672,0.453 -1.426,0.768 -2.219,0.928c-0.793,0.16 -1.611,0.162 -2.404,0.005l-43.676,-8.814c-1.596,-0.321 -3,-1.261 -3.905,-2.614c-0.905,-1.354 -1.237,-3.011 -0.923,-4.608l31.573,-160.26c0.155,-0.797 0.467,-1.555 0.917,-2.232c0.45,-0.676 1.028,-1.257 1.703,-1.709c0.675,-0.453 1.432,-0.767 2.228,-0.926c0.797,-0.159 1.617,-0.159 2.413,0l43.69,8.814c1.589,0.333 2.982,1.28 3.877,2.635c0.894,1.355 1.217,3.009 0.898,4.6Zm-149.195,163.561l-39.822,-20.022c-1.458,-0.733 -2.565,-2.016 -3.078,-3.565c-0.513,-1.549 -0.39,-3.238 0.342,-4.696l73.881,-147.012c0.733,-1.458 2.015,-2.565 3.564,-3.078c1.549,-0.513 3.239,-0.391 4.697,0.341l39.835,20.023c1.458,0.733 2.565,2.015 3.078,3.564c0.513,1.549 0.39,3.239 -0.342,4.698l-73.894,147.011c-0.733,1.458 -2.015,2.565 -3.564,3.078c-1.549,0.514 -3.239,0.39 -4.697,-0.342Zm206.632,-0.617l-44.571,-0c-1.632,-0 -3.199,-0.649 -4.353,-1.804c-1.155,-1.154 -1.803,-2.72 -1.803,-4.354l-0,-164.534c0.003,-1.632 0.653,-3.196 1.806,-4.35c1.154,-1.153 2.718,-1.803 4.35,-1.806l44.571,-0c1.633,-0 3.198,0.648 4.353,1.803c1.155,1.154 1.803,2.721 1.803,4.353l-0,164.534c0.002,0.81 -0.156,1.611 -0.465,2.359c-0.309,0.748 -0.762,1.427 -1.334,1.999c-0.572,0.573 -1.251,1.026 -1.999,1.334c-0.748,0.309 -1.549,0.467 -2.358,0.466Z" style="fill:url(#_Linear1);"/><defs><linearGradient id="_Linear1" x1="0" y1="0" x2="1" y2="0" gradientUnits="userSpaceOnUse" gradientTransform="matrix(257.616,-132.577,132.577,257.616,9.2971,179.34)"><stop offset="0" style="stop-color:#f0f;stop-opacity:1"/><stop offset="0.02" style="stop-color:#f0f;stop-opacity:1"/><stop offset="0.43" style="stop-color:#b02de9;stop-opacity:1"/><stop offset="0.63" style="stop-color:#8527d5;stop-opacity:1"/><stop offset="0.85" style="stop-color:#6021c3;stop-opacity:1"/><stop offset="1" style="stop-color:#6021c3;stop-opacity:1"/></linearGradient></defs></svg>