<?xml version="1.0" encoding="UTF-8"?>
<svg id="Layer_1" data-name="Layer 1" xmlns="http://www.w3.org/2000/svg" viewBox="0 0 1000 1000">
  <defs>
    <style>
      .cls-1 {
        fill: #5998d1;
      }

      .cls-1, .cls-2 {
        stroke-width: 0px;
      }

      .cls-2 {
        fill: #fff;
      }
    </style>
  </defs>
  <rect class="cls-1" x="29.94" y="29.94" width="940.12" height="940.12" rx="470.06" ry="470.06"/>
  <g id="SUAus_Rondal_-_RGB" data-name="SUAus_Rondal - RGB">
    <path class="cls-2" d="m499.95,655.92c-87.33,0-158.37-71.04-158.37-158.37h-43.57c0,111.37,90.57,201.94,201.94,201.94,111.37,0,201.94-90.57,201.94-201.94h-43.57c0,87.33-71.04,158.37-158.37,158.37m-21.69-125.11v-43.57c-35.23,0-63.88-28.65-63.88-63.98,0-35.32,28.65-63.88,63.88-63.88v-43.57c-59.27,0-107.44,48.18-107.44,107.44,0,59.27,48.18,107.54,107.44,107.54m133.74-23.94c0-59.27-48.18-107.44-107.54-107.44v43.57c35.23,0,63.98,28.65,63.98,63.88,0,35.23-28.65,63.88-63.98,63.88v43.57c59.27,0,107.54-48.18,107.54-107.44m207.14-73.79c-.98-1.18-2.26-2.06-3.73-2.55-1.47-.49-3.04-.59-4.81-.29-1.67.29-3.14.98-4.32,2.06-1.18,1.08-1.96,2.26-2.55,3.73-.49,1.47-.59,3.04-.29,4.61.29,1.47.98,2.85,1.96,4.12.98,1.18,2.26,2.06,3.73,2.55,1.47.49,3.04.59,4.71.29,1.77-.29,3.14-.98,4.32-2.06,1.18-1.08,1.96-2.26,2.45-3.83.49-1.57.59-3.04.29-4.51-.29-1.67-.98-3.04-1.96-4.22m-20.61,95.47l.39-31.5h-9.03s-.59,42.09-.59,42.09l57.79.78.59-43.37h-9.03s-.39,32.48-.39,32.48l-39.74-.49h0Zm23.84,1.08l.39-28.75h-8.83s-.39,28.65-.39,28.65l8.83.1h0Zm-35.81,57.6l7.56-30.52-8.73-2.16-10.11,41.02,56.13,13.84,2.55-10.4-47.39-11.77h0Zm25.71,7.26l6.87-27.97-8.83-2.16-6.87,27.97,8.83,2.16Zm5.59,46.71l-52.89-23.35-4.32,9.81,52.89,23.35,4.32-9.81Zm-17.27,34.24l-7.56-5-16.78,25.22-40.62-26.98-5.99,8.93,48.18,31.99,22.67-34.15h.1Zm-76.05,80.46l-14.33-18.05-7.95,6.38,13.54,16.88,8.83-5.2h-.1Zm-4.81,10.89c2.35-3.43,3.92-7.06,4.81-10.89l-9.81-2.45c-.59,3.24-1.57,5.99-3.14,8.34-1.57,2.35-3.43,4.42-5.59,6.28-2.45,1.96-4.91,3.34-7.56,4.12-2.55.78-5.2,1.08-7.85.78-2.65-.29-5.1-1.08-7.46-2.35-2.35-1.28-4.42-3.14-6.28-5.4-1.86-2.35-3.14-4.81-3.92-7.36-.78-2.55-.98-5.2-.59-7.75.39-2.55,1.18-5.1,2.65-7.46,1.37-2.35,3.34-4.51,5.69-6.38,2.45-1.96,5-3.34,7.75-4.12,2.75-.78,5.69-.98,8.83-.69l1.18-9.42c-4.02-.69-8.05-.49-12.17.69s-8.05,3.34-11.87,6.38c-3.53,2.85-6.28,5.99-8.34,9.52-2.06,3.53-3.34,7.16-3.92,11.09-.59,3.83-.29,7.65.78,11.48,1.08,3.83,2.94,7.36,5.59,10.7,2.65,3.34,5.79,5.99,9.22,7.85,3.43,1.86,7.16,3.04,10.99,3.34,3.83.29,7.75-.1,11.58-1.28,3.83-1.18,7.56-3.24,11.09-6.08,3.14-2.55,5.99-5.49,8.34-8.93m-99.2,57.99l-17.66-40.82-4.02,1.77,51.02,26.4,8.14-3.53-22.96-53.08-9.81,4.22,17.66,40.82,4.02-1.77-50.93-26.4-8.14,3.53,22.96,53.08,9.71-4.22h0Zm-44.35,12.27l-13.54-56.22-10.4,2.55,13.54,56.22,10.4-2.55Zm-81.93-45.53l-4.61,5.49,17.37-.69c4.71-.2,8.34.69,10.79,2.55,2.45,1.86,3.73,4.71,3.92,8.34.1,3.63-.98,6.48-3.24,8.63-2.35,2.16-5.89,3.24-10.6,3.43l-17.37.69,5,4.91-1.28-33.46v.1Zm40.62,52.5l-15.5-20.41-11.48.39,15.41,20.41,11.58-.39Zm-38.66,1.47l-.78-21.69-4.61,5,17.86-.69c5.1-.2,9.52-1.18,13.05-2.94,3.63-1.77,6.38-4.22,8.24-7.36,1.86-3.14,2.75-6.77,2.55-11.09-.2-4.22-1.28-7.85-3.43-10.89-2.06-3.04-5-5.3-8.73-6.77-3.73-1.47-8.14-2.16-13.25-1.96l-23.75.88,2.16,57.79,10.7-.29h0Zm-66.53-56.91l31.11,5.1,1.47-8.93-41.7-6.87-9.32,57.11,42.78,7.06,1.47-8.93-32.18-5.3,6.48-39.25h-.1Zm-4.71,23.45l28.36,4.61,1.47-8.73-28.36-4.61-1.47,8.73Zm-63.49,4.12l46.12-43.08-9.81-4.32-41.7,38.95,6.18,2.65v-56.91s-10.6-4.61-10.6-4.61l.2,63.09,9.62,4.22h0Zm-75.95-57.99c-1.37-2.26-2.26-4.71-2.55-7.26s-.2-5.1.49-7.75c.69-2.55,1.96-5,3.63-7.36,1.77-2.35,3.83-4.22,6.18-5.59,2.26-1.37,4.71-2.16,7.36-2.55,2.55-.39,5.2-.2,7.75.49,2.55.69,5,1.96,7.36,3.73,2.35,1.77,4.22,3.83,5.59,6.08,1.37,2.26,2.26,4.71,2.55,7.26.29,2.55.2,5.1-.49,7.75-.69,2.55-1.86,5-3.73,7.36-1.77,2.35-3.83,4.22-6.18,5.59-2.26,1.37-4.71,2.16-7.26,2.55-2.55.39-5.1.2-7.65-.49s-5-1.96-7.36-3.73c-2.35-1.77-4.12-3.83-5.69-6.08m11.19,19.33c3.92,1.08,7.75,1.47,11.58,1.08,3.83-.39,7.46-1.57,10.89-3.53,3.43-1.96,6.48-4.61,9.03-8.05,2.55-3.43,4.42-7.06,5.3-10.79.98-3.83,1.08-7.65.49-11.48s-1.96-7.46-4.12-10.89c-2.06-3.43-4.91-6.57-8.54-9.32-3.53-2.65-7.26-4.61-11.19-5.69s-7.85-1.47-11.68-.98c-3.83.39-7.46,1.57-10.89,3.53s-6.38,4.61-9.03,8.05c-2.55,3.43-4.42,7.06-5.3,10.79-.98,3.83-1.08,7.65-.49,11.48s1.96,7.46,4.12,10.99c2.16,3.53,5,6.57,8.54,9.32,3.53,2.75,7.26,4.61,11.19,5.69m-57.21-52.59c3.73,1.96,7.65,3.04,11.87,3.14l.78-9.52c-3.14-.2-5.89-.88-8.44-2.16-2.55-1.28-4.71-3.14-6.67-5.49-1.96-2.35-3.24-4.81-4.12-7.36-.78-2.55-1.08-5.1-.88-7.75.29-2.55.98-5,2.26-7.36,1.28-2.35,3.04-4.51,5.4-6.38,2.35-1.86,4.71-3.24,7.36-3.92,2.55-.78,5.1-.98,7.75-.69,2.55.29,5,1.08,7.36,2.45,2.35,1.28,4.51,3.14,6.38,5.49,1.96,2.35,3.24,4.91,4.02,7.65.78,2.75.88,5.59.49,8.63l9.42,1.28c.78-4.12.59-8.24-.69-12.27-1.18-4.02-3.34-7.95-6.28-11.58-2.85-3.43-5.99-6.18-9.42-8.14-3.53-1.96-7.16-3.24-10.99-3.73s-7.65-.2-11.48.88c-3.83,1.08-7.36,3.04-10.7,5.69-3.34,2.75-5.89,5.79-7.75,9.32s-2.94,7.16-3.24,10.99c-.29,3.83.1,7.65,1.37,11.58,1.28,3.83,3.24,7.46,6.08,10.89,3.04,3.73,6.38,6.57,10.2,8.54m-45.33-66.53c2.94,2.35,5.99,3.73,9.03,4.12,3.04.29,5.99-.2,8.73-1.57,2.75-1.37,4.71-3.04,5.89-5,1.18-1.96,1.86-4.12,2.06-6.48.1-2.35,0-4.71-.49-7.26-.49-2.55-.98-5-1.57-7.46-.59-2.45-1.08-4.71-1.47-6.77-.39-2.06-.29-3.92,0-5.49.39-1.57,1.37-2.75,2.94-3.53,1.37-.69,2.75-.88,4.12-.59,1.37.2,2.85.98,4.32,2.35s2.85,3.34,4.22,5.99c1.18,2.26,1.96,4.81,2.55,7.56.59,2.75.78,5.69.49,8.73l8.93-.69c.29-3.04.1-6.28-.59-9.71-.78-3.43-1.86-6.67-3.43-9.81-2.35-4.71-5-8.24-7.95-10.7-2.94-2.35-5.99-3.73-9.03-4.02-3.14-.29-6.08.2-8.83,1.67-2.75,1.37-4.71,3.04-5.99,5.1-1.18,2.06-1.86,4.22-2.06,6.48-.2,2.35,0,4.71.39,7.26.39,2.55.98,5,1.57,7.46.59,2.45,1.08,4.71,1.37,6.77.29,2.06.29,3.92,0,5.49-.39,1.57-1.37,2.85-2.94,3.63-1.28.69-2.65.78-4.02.59-1.37-.29-2.85-1.08-4.22-2.45-1.47-1.37-2.85-3.43-4.22-6.08-1.57-3.24-2.65-6.57-3.04-10.2-.49-3.63-.39-6.87.2-9.71l-9.13.39c-.69,3.04-.78,6.77,0,10.99.69,4.32,2.06,8.44,4.12,12.46,2.35,4.71,5,8.24,7.95,10.7m-26.3-61.52l55.34-16.58-3.04-10.3-55.34,16.58,3.04,10.3Zm34.44-91.45l1.28,14.03c.39,4.32-.1,8.14-1.47,11.48-1.37,3.34-3.43,5.99-6.18,7.95-2.75,1.96-6.18,3.14-10.2,3.53-3.92.39-7.46-.2-10.6-1.67-3.14-1.47-5.59-3.73-7.56-6.67-1.96-3.04-3.04-6.67-3.43-10.99l-1.28-14.03,39.54-3.53-.1-.1Zm-47.3,18.84c.59,6.28,2.26,11.58,5.1,16.09,2.85,4.51,6.48,7.85,11.09,10.11,4.51,2.26,9.71,3.14,15.41,2.55,5.79-.49,10.7-2.26,14.82-5.3,4.02-3.04,7.06-6.97,9.03-11.97,1.96-5,2.75-10.5,2.16-16.78l-2.26-25.22-57.6,5.2,2.26,25.22v.1Zm26.2-82.82c.59,1.47,1.37,2.65,2.65,3.73,1.18.98,2.65,1.67,4.42,1.96,1.67.29,3.24.1,4.71-.39,1.47-.59,2.65-1.47,3.63-2.65.98-1.18,1.57-2.65,1.86-4.22.29-1.57.1-3.04-.39-4.51-.49-1.47-1.37-2.75-2.55-3.73-1.18-.98-2.65-1.67-4.32-1.96-1.77-.29-3.34-.2-4.81.39-1.47.59-2.65,1.47-3.63,2.65-.98,1.28-1.57,2.65-1.86,4.12-.29,1.67-.1,3.14.29,4.61m595.12-61.23l6.28-6.38-14.03-27.87-8.83,1.18,16.58,33.07h0Zm-28.95-27.87l56.62-3.43-1.96-3.83-36.6,43.37,5,10.01,39.94-49.26-4.71-9.42-63.39,2.65,5.1,9.91h0Zm-14.62-21.19l46.61-34.25-6.38-8.63-46.61,34.25,6.38,8.63h0Zm-15.7-20.7l6.48-6.38-21.19-21.49,34.74-34.25-7.56-7.65-41.21,40.62,28.75,29.14h0Zm-44.35-57.7l1.96-8.73-26.59-16.39-6.87,5.69,31.5,19.43h0Zm-39.25-8.54l46.41-32.58-3.63-2.26-8.34,56.13,9.52,5.89,8.24-62.9-9.03-5.59-52.5,35.52,9.32,5.79h0Zm-41.51-73.59l-6.18,3.53,16.48,5.3c4.51,1.47,7.56,3.53,9.32,6.08,1.67,2.65,1.96,5.69.78,9.22-1.08,3.43-3.14,5.79-5.99,6.97-2.94,1.18-6.57,1.08-11.09-.39l-16.48-5.3,3.04,6.38,10.2-31.89-.1.1Zm20.31,63.29l-7.56-24.43-10.89-3.53,7.46,24.43,10.99,3.53Zm-36.8-11.87l6.67-20.7-6.08,3.14,16.98,5.49c4.91,1.57,9.32,2.16,13.25,1.67,4.02-.39,7.36-1.77,10.2-4.12,2.85-2.26,4.91-5.49,6.18-9.52,1.28-4.02,1.47-7.85.49-11.38-.98-3.53-2.94-6.67-5.89-9.32s-6.87-4.81-11.77-6.38l-22.67-7.26-17.66,55.05,10.2,3.34h.1Zm-44.16-7.95l4.32-48.57,19.13,1.67.79-9.03-48.87-4.32-.78,9.03,19.13,1.67-4.32,48.57,10.7.98h-.1Zm-51.51-2.45c3.34-1.86,5.69-4.22,7.16-6.97,1.47-2.75,2.06-5.69,1.77-8.73-.29-3.04-1.08-5.49-2.55-7.36-1.37-1.86-3.14-3.34-5.3-4.22-2.06-.98-4.42-1.67-6.87-2.26-2.55-.49-5-.88-7.56-1.28s-4.81-.78-6.87-1.18c-2.06-.39-3.73-1.08-5.1-2.06-1.37-.98-2.06-2.35-2.26-4.12-.1-1.47.2-2.85.88-4.02.78-1.28,1.96-2.26,3.83-3.14,1.77-.88,4.12-1.47,7.06-1.67,2.55-.2,5.2,0,7.95.39,2.75.39,5.59,1.37,8.24,2.75l2.65-8.63c-2.65-1.37-5.79-2.45-9.22-3.04s-6.97-.69-10.4-.39c-5.3.49-9.52,1.67-12.85,3.53-3.34,1.86-5.69,4.22-7.06,6.97-1.47,2.75-2.06,5.69-1.77,8.83.29,3.04,1.08,5.49,2.55,7.36,1.47,1.86,3.24,3.34,5.3,4.32,2.06.98,4.42,1.77,6.87,2.26,2.55.49,5,.98,7.46,1.28,2.45.29,4.81.69,6.87,1.18,2.06.49,3.73,1.18,5.1,2.16,1.37.98,2.16,2.35,2.26,4.12.1,1.47-.2,2.75-.98,3.92s-2.06,2.26-3.92,3.04c-1.77.78-4.22,1.37-7.26,1.67-3.53.29-7.06,0-10.6-.88-3.53-.88-6.48-2.16-8.93-3.73l-2.94,8.63c2.55,1.86,5.99,3.24,10.2,4.12,4.22.88,8.63,1.18,13.05.78,5.3-.49,9.52-1.67,12.85-3.53m-60.54,5.79c2.75-5.69,2.75-12.56,0-20.51l-10.79-30.81-10.01,3.43,10.6,30.42c1.96,5.59,2.16,10.11.69,13.54-1.47,3.34-4.42,5.89-8.93,7.36-4.42,1.57-8.24,1.47-11.58-.29-3.34-1.67-5.99-5.4-7.95-10.99l-10.6-30.42-10.11,3.53,10.79,30.81c2.75,7.95,6.97,13.34,12.76,15.99,5.69,2.75,12.27,2.75,19.82.2,7.46-2.55,12.56-6.77,15.31-12.46m-68.78,20.9l-7.06-5.49-26.2,17.07,2.16,8.63,31.11-20.21h0Zm-24.43,31.89l-9.81-55.83-3.63,2.35,47.2,31.4,9.42-6.18-53.48-34.15-8.83,5.79,9.81,62.6,9.32-6.08v.1s0,0,0,0Zm-43.57,32.68c-.59-6.28-4.22-12.07-10.79-17.47l-25.32-20.61-6.67,8.24,25.02,20.31c4.61,3.73,7.16,7.46,7.65,11.09.49,3.63-.78,7.36-3.73,10.99-2.94,3.63-6.28,5.59-10.01,5.89-3.73.29-7.85-1.47-12.46-5.2l-25.02-20.31-6.77,8.34,25.32,20.61c6.57,5.3,12.95,7.65,19.23,6.97,6.28-.69,11.97-4.12,16.98-10.2,5-6.08,7.16-12.27,6.57-18.64m-36.5,59.86c.2-3.83-.59-7.06-2.16-9.71-1.57-2.65-3.73-4.71-6.48-6.08-2.75-1.37-5.2-1.96-7.56-1.67-2.35.2-4.42.98-6.38,2.26-1.96,1.28-3.73,2.85-5.49,4.71-1.77,1.86-3.43,3.83-5,5.69-1.67,1.96-3.14,3.73-4.61,5.2-1.47,1.57-2.94,2.55-4.42,3.24-1.47.59-3.04.59-4.61-.29-1.37-.69-2.35-1.67-2.94-2.94-.69-1.28-.88-2.94-.69-4.91.2-1.96.98-4.32,2.26-6.97,1.18-2.26,2.65-4.42,4.51-6.57,1.86-2.16,4.12-4.02,6.67-5.59l-5.99-6.77c-2.65,1.57-5.1,3.63-7.36,6.28-2.35,2.65-4.22,5.49-5.79,8.63-2.35,4.71-3.63,9.03-3.73,12.76-.1,3.83.59,6.97,2.16,9.71,1.57,2.65,3.83,4.71,6.57,6.08,2.75,1.37,5.3,1.96,7.65,1.67,2.35-.2,4.51-.98,6.48-2.26,1.96-1.28,3.83-2.85,5.59-4.71,1.77-1.86,3.43-3.73,5-5.69,1.57-1.96,3.14-3.63,4.61-5.2,1.47-1.47,2.94-2.55,4.51-3.24s3.04-.59,4.61.2c1.28.69,2.26,1.57,2.85,2.94.59,1.28.78,2.94.59,4.91-.29,1.96-1.08,4.32-2.45,6.97-1.57,3.24-3.73,6.08-6.28,8.54-2.65,2.55-5.3,4.42-7.95,5.69l5.79,7.06c2.94-1.28,5.89-3.43,8.83-6.57,3.04-3.14,5.49-6.67,7.56-10.7,2.35-4.71,3.63-9.03,3.83-12.76"/>
  </g>
</svg>